0
SECTION
2
HEADER
9
$INSUNITS
70
4
9
$ACADVER
1
AC1014
9
$HANDSEED
5
FFFF
0
ENDSEC
0
SECTION
2
TABLES
0
TABLE
2
VPORT
5
8
100
AcDbSymbolTable
0
ENDTAB
0
TABLE
2
LTYPE
5
5
100
AcDbSymbolTable
0
LTYPE
5
14
100
AcDbSymbolTableRecord
100
AcDbLinetypeTableRecord
2
BYBLOCK
70
0
0
LTYPE
5
15
100
AcDbSymbolTableRecord
100
AcDbLinetypeTableRecord
2
BYLAYER
70
0
0
ENDTAB
0
TABLE
2
LAYER
5
2
100
AcDbSymbolTable
70
2
0
LAYER
5
50
100
AcDbSymbolTableRecord
100
AcDbLayerTableRecord
2
0
70
0
6
CONTINUOUS
0
ENDTAB
0
TABLE
2
STYLE
5
3
100
AcDbSymbolTable
70
1
0
STYLE
5
11
100
AcDbSymbolTableRecord
100
AcDbTextStyleTableRecord
2
STANDARD
70
0
0
ENDTAB
0
TABLE
2
VIEW
5
6
100
AcDbSymbolTable
70
0
0
ENDTAB
0
TABLE
2
UCS
5
7
100
AcDbSymbolTable
70
0
0
ENDTAB
0
TABLE
2
APPID
5
9
100
AcDbSymbolTable
70
2
0
APPID
5
12
100
AcDbSymbolTableRecord
100
AcDbRegAppTableRecord
2
ACAD
70
0
0
ENDTAB
0
TABLE
2
DIMSTYLE
5
A
100
AcDbSymbolTable
70
1
0
ENDTAB
0
TABLE
2
BLOCK_RECORD
5
1
100
AcDbSymbolTable
70
1
0
BLOCK_RECORD
5
1F
100
AcDbSymbolTableRecord
100
AcDbBlockTableRecord
2
*MODEL_SPACE
0
BLOCK_RECORD
5
1B
100
AcDbSymbolTableRecord
100
AcDbBlockTableRecord
2
*PAPER_SPACE
0
ENDTAB
0
ENDSEC
0
SECTION
2
BLOCKS
0
BLOCK
5
20
100
AcDbEntity
100
AcDbBlockBegin
2
*MODEL_SPACE
0
ENDBLK
5
21
100
AcDbEntity
100
AcDbBlockEnd
0
BLOCK
5
1C
100
AcDbEntity
100
AcDbBlockBegin
2
*PAPER_SPACE
0
ENDBLK
5
1D
100
AcDbEntity
100
AcDbBlockEnd
0
ENDSEC
0
SECTION
2
ENTITIES
0
LWPOLYLINE
5
100
100
AcDbEntity
8
0
100
AcDbPolyline
90
85
70
1
43
0.0
10
-188.9229038470086
20
127.60053080270114
10
-100.05622508455799
20
127.59491270863958
10
-100.05551303431386
20
122.58364684407223
10
-50.057748444960708
20
122.59075102122682
10
-50.077906717409284
20
264.46060268820059
10
-50.416826516527678
20
272.26941186416559
10
-51.201428781263047
20
280.00985842850025
10
-52.430670343349092
20
287.69224600732554
10
-54.100467785936736
20
295.29105448167894
10
-56.205274209843267
20
302.78104137399379
10
-58.738097659803252
20
310.13732570105242
10
-61.690524351029012
20
317.33547062611359
10
-65.052746618967134
20
324.35156463561225
10
-68.813595499368631
20
331.16230097083877
10
-72.960577830463336
20
337.7450550506137
10
-77.479917753995522
20
344.07795962788163
10
-82.356602477226886
20
350.13997743051198
10
-87.574432143937031
20
355.91097104499403
10
-93.116073648707356
20
361.37176981090994
10
-98.963118215759494
20
366.50423350392293
10
-105.09614255105515
20
371.2913125957997
10
-111.4947733645227
20
375.71710489120824
10
-118.13775504808676
20
379.76690835323444
10
-125.00302028464836
20
383.42726994204588
10
-132.06776335350565
20
386.68603030455506
10
-139.30851588865366
20
389.53236416654937
10
-146.70122483834365
20
391.95681629318875
10
-154.22133236689933
20
393.95133289832449
10
-161.84385743337504
20
395.50928839837576
10
-169.54347877606779
20
396.62550742184698
10
-177.29461902719353
20
397.29628200139848
10
-185.13857531470623
20
397.52130727824272
10
-192.84715052086153
20
397.29417842534536
10
-200.59932593197888
20
396.62109469975695
10
-208.29862975688354
20
395.50268764461043
10
-215.92071177610919
20
393.94256603992966
10
-223.4402521997074
20
391.94591245278281
10
-230.83227187059953
20
389.5193595655939
10
-238.07221524282511
20
386.67096814302289
10
-245.1360319525923
20
383.41020025492787
10
-252.00025671116862
20
379.74788784431558
10
-258.64208725421298
20
375.69619674470408
10
-265.03946008860424
20
371.26858626646373
10
-271.17112378514105
20
366.47976448634347
10
-277.01670957366053
20
361.34563938870122
10
-282.55679900604036
20
355.88326602079184
10
-287.77298846232907
20
350.11078983761598
10
-292.6479502857224
20
344.04738642454794
10
-297.16549034329933
20
337.71319779794402
10
-301.31060182129806
20
331.1292654954259
10
-305.06951507624524
20
324.31746067797661
10
-308.42974337632592
20
317.30041147617692
10
-311.3801243810517
20
310.10142782178809
10
-313.91085722143225
20
302.74442401454235
10
-316.01353505747744
20
295.25383928122284
10
-317.68117300487296
20
287.65455659102162
10
-318.90823133806532
20
279.97181999680453
10
-319.690633892672
20
272.2311507769171
10
-320.0257816060888
20
264.45826265605768
10
-319.9125611513162
20
256.67897638687703
10
-319.35134863531948
20
248.91913397603747
10
-318.34400834963782
20
241.20451283964539
10
-316.89388657739693
20
233.56074017329402
10
-315.00580047728937
20
226.01320782107837
10
-312.68602208146541
20
218.58698792644458
10
-309.94225746046357
20
211.30674964505619
10
-306.78362112442636
20
204.19667719634927
10
-303.22060574561175
20
197.28038952596367
10
-299.26504730278987
20
190.58086184600126
10
-294.93008576331397
20
184.12034931366694
10
-290.23012143346898
20
177.92031310188531
10
-285.18076712210353
20
172.00134910744285
10
-279.79879627644681
20
166.38311953348594
10
-274.10208726240614
20
161.08428757365414
10
-268.10956397443022
20
156.122455414836
10
-261.84113297224064
20
151.51410576447307
10
-255.3176173532367
20
147.27454709666208
10
-248.56068758026089
20
143.41786279894723
10
-241.59278949450334
20
139.95686438870661
10
-234.43706975267219
20
136.90304895460085
10
-227.11729893612912
20
134.26656096440243
10
-219.65779258740724
20
132.05615856606246
10
-212.08333043642668
20
130.27918449406204
10
-204.41907408472025
20
128.94154167757054
10
-196.69048342112433
20
128.0476736314952
0
ELLIPSE
5
101
100
AcDbEntity
8
0
100
AcDbEllipse
10
-206.681920906779
20
262.57650504154634
30
0
11
3.793290635162804e-17
21
-1.6005658278618962
31
0.0
40
0.99999998984922611
41
5.7742142918501145
42
10.01535701789456
0
ARC
5
102
100
AcDbEntity
8
0
100
AcDbCircle
10
-208.35202279525208
20
262.508320323193
30
8.8817841970012523e-15
40
1.5999999910886953
210
2.7021422692928443e-15
220
4.8490521352061852e-15
230
1
100
AcDbArc
50
60.871190216426569
51
303.80460610534618
0
CIRCLE
5
103
100
AcDbEntity
8
0
100
AcDbCircle
10
-185.05234936506673
20
262.53221147788037
30
0
40
9.0000000000000036
210
-1.0176565578723931e-25
220
4.8933475575309714e-29
230
1
0
ELLIPSE
5
104
100
AcDbEntity
8
0
100
AcDbEllipse
10
-185.0087742345147
20
284.25262751502925
30
0
11
3.7919496793986259e-17
21
-1.6000000162394288
31
0.0
40
0.99999998984922611
41
0
42
6.2831853071795862
0
ELLIPSE
5
105
100
AcDbEntity
8
0
100
AcDbEllipse
10
-185.01229623418914
20
240.90988927577004
30
0
11
3.7919492624707539e-17
21
-1.5999998402852422
31
0.0
40
0.99999998984922622
41
0
42
6.2831853071795862
0
ELLIPSE
5
106
100
AcDbEntity
8
0
100
AcDbEllipse
10
-163.34361106773434
20
262.57511653836468
30
8.8817841970012523e-15
11
3.7919486567385935e-17
21
-1.5999995846863913
31
0.0
40
0.999999989849226
41
2.7825445687861117
42
6.5233716514607076
0
ARC
5
107
100
AcDbEntity
8
0
100
AcDbCircle
10
-162.40078304063525
20
262.51901738471537
30
-1.018800035502715e-39
40
1.5999999952228698
210
1.9505728011561695e-15
220
5.1971285381058175e-15
230
1
100
AcDbArc
50
-110.5719874634205
51
103.76171145484172
0
ENDSEC
0
SECTION
2
OBJECTS
0
DICTIONARY
5
C
100
AcDbDictionary
3
ACAD_GROUP
350
D
3
ACAD_MLINESTYLE
350
17
0
DICTIONARY
5
D
100
AcDbDictionary
0
DICTIONARY
5
1A
330
C
100
AcDbDictionary
0
DICTIONARY
5
17
100
AcDbDictionary
0
ENDSEC
0
EOF
