0
SECTION
2
HEADER
9
$INSUNITS
70
4
9
$ACADVER
1
AC1014
9
$HANDSEED
5
FFFF
0
ENDSEC
0
SECTION
2
TABLES
0
TABLE
2
VPORT
5
8
100
AcDbSymbolTable
0
ENDTAB
0
TABLE
2
LTYPE
5
5
100
AcDbSymbolTable
0
LTYPE
5
14
100
AcDbSymbolTableRecord
100
AcDbLinetypeTableRecord
2
BYBLOCK
70
0
0
LTYPE
5
15
100
AcDbSymbolTableRecord
100
AcDbLinetypeTableRecord
2
BYLAYER
70
0
0
ENDTAB
0
TABLE
2
LAYER
5
2
100
AcDbSymbolTable
70
2
0
LAYER
5
50
100
AcDbSymbolTableRecord
100
AcDbLayerTableRecord
2
0
70
0
6
CONTINUOUS
0
ENDTAB
0
TABLE
2
STYLE
5
3
100
AcDbSymbolTable
70
1
0
STYLE
5
11
100
AcDbSymbolTableRecord
100
AcDbTextStyleTableRecord
2
STANDARD
70
0
0
ENDTAB
0
TABLE
2
VIEW
5
6
100
AcDbSymbolTable
70
0
0
ENDTAB
0
TABLE
2
UCS
5
7
100
AcDbSymbolTable
70
0
0
ENDTAB
0
TABLE
2
APPID
5
9
100
AcDbSymbolTable
70
2
0
APPID
5
12
100
AcDbSymbolTableRecord
100
AcDbRegAppTableRecord
2
ACAD
70
0
0
ENDTAB
0
TABLE
2
DIMSTYLE
5
A
100
AcDbSymbolTable
70
1
0
ENDTAB
0
TABLE
2
BLOCK_RECORD
5
1
100
AcDbSymbolTable
70
1
0
BLOCK_RECORD
5
1F
100
AcDbSymbolTableRecord
100
AcDbBlockTableRecord
2
*MODEL_SPACE
0
BLOCK_RECORD
5
1B
100
AcDbSymbolTableRecord
100
AcDbBlockTableRecord
2
*PAPER_SPACE
0
ENDTAB
0
ENDSEC
0
SECTION
2
BLOCKS
0
BLOCK
5
20
100
AcDbEntity
100
AcDbBlockBegin
2
*MODEL_SPACE
0
ENDBLK
5
21
100
AcDbEntity
100
AcDbBlockEnd
0
BLOCK
5
1C
100
AcDbEntity
100
AcDbBlockBegin
2
*PAPER_SPACE
0
ENDBLK
5
1D
100
AcDbEntity
100
AcDbBlockEnd
0
ENDSEC
0
SECTION
2
ENTITIES
0
CIRCLE
5
100
100
AcDbEntity
8
0
100
AcDbCircle
10
163.34360972126973
20
262.565637727298
30
0
40
1.5999995684451735
210
3.6318398769903565e-24
220
1.4295247506898066e-30
230
1
0
CIRCLE
5
101
100
AcDbEntity
8
0
100
AcDbCircle
10
185.01229488772449
20
240.90041068455957
30
-1.1102230246251565e-15
40
1.5999998240440061
210
-3.6489710180175249e-24
220
2.7105054310703446e-20
230
1
0
CIRCLE
5
102
100
AcDbEntity
8
0
100
AcDbCircle
10
185.00877288805003
20
284.24314848385649
30
-1.1102230246251565e-15
40
1.599999999998192
210
3.6835386652749162e-25
220
1.4498738574611928e-31
230
1
0
CIRCLE
5
103
100
AcDbEntity
8
0
100
AcDbCircle
10
185.00947340807073
20
262.566340482523
30
0
40
8.9999999999999698
210
-1.3345341466742909e-25
220
2.7105054312087185e-20
230
1
0
CIRCLE
5
104
100
AcDbEntity
8
0
100
AcDbCircle
10
206.68191956031433
20
262.5670262303405
30
0
40
1.6005658116149002
210
3.2537333135804288e-25
220
2.7105054312267786e-20
230
1
0
LWPOLYLINE
5
105
100
AcDbEntity
8
0
100
AcDbPolyline
90
83
70
1
43
0.0
10
45.542798466559773
20
274.65091943024436
10
45.078210074650528
20
266.59556700153195
10
45.057748168412544
20
122.58880349712658
10
187.03143618527292
20
122.59169229895826
10
195.09229497377618
20
122.94067243807099
10
203.11965964301993
20
123.75347500485651
10
211.08686409486214
20
125.02739995092718
10
218.96744207733107
20
126.75821542572662
10
226.73521510289746
20
128.9401718343064
10
234.36437941073842
20
131.56602093690879
10
241.82959168425305
20
134.62703992688461
10
249.10605323901888
20
138.11306040698531
10
256.1695924015084
20
142.01250216774835
10
262.996744804983
20
146.31241165579547
10
269.56483133572982
20
150.99850500423389
10
275.85203347082188
20
156.05521548221677
10
281.83746575704117
20
161.46574520607129
10
287.501245190269
20
167.21212094016772
10
292.8245572648018
20
173.27525380220834
10
297.78971847327711
20
179.63500267456854
10
302.38023504948836
20
186.27024111106689
10
306.58085775901174
20
193.15892751689705
10
310.37763255565113
20
200.27817836858372
10
313.7579469353542
20
207.60434423075336
10
316.71057183370021
20
215.11308831717176
10
319.22569892770258
20
222.77946733510811
10
321.29497321809845
20
230.5780143444394
10
322.91152078378775
20
238.48282335626902
10
324.06997161633069
20
246.46763539001364
10
324.76647745856076
20
254.50592570309504
10
325.00069069987933
20
262.6392675439285
10
324.76594150338474
20
270.63604265229498
10
324.06890148636825
20
278.67428666204796
10
322.90992003389789
20
286.65902169450084
10
321.29284716581606
20
294.56372326286879
10
319.22305463556035
20
302.36213274348336
10
316.70741808576571
20
310.02834460430404
10
313.7542942080683
20
317.53689246048788
10
310.37349298299921
20
324.86283367116039
10
306.57624509224644
20
331.98183219635939
10
302.37516461141439
20
338.87023943891086
10
297.78420710738646
20
345.50517280269537
10
292.81862327929804
20
351.86459170632486
10
287.49490829724976
20
357.92737079974199
10
281.8307470070315
20
363.67337014050611
10
275.84495518282989
20
369.0835020966602
10
269.55741702312423
20
374.13979475391761
10
262.98901909736122
20
378.82545161656373
10
256.16158096289348
20
383.12490740371715
10
249.0977826826051
20
387.02387975563107
10
241.8210894839948
20
390.50941667825634
10
234.35567381008684
20
393.56993956846031
10
226.72633502099222
20
396.19528167698724
10
218.95841701290612
20
398.37672188137225
10
211.07772402826814
20
400.10701365663465
10
203.11043493665008
20
401.38040914750411
10
195.08301627116677
20
402.19267826222233
10
187.02213430934776
20
402.54112272447469
10
178.954566490421
20
402.42458503679961
10
170.90711246335843
20
401.84345232567608
10
162.90650506113562
20
400.79965505552809
10
154.97932149696044
20
399.29666061591837
10
147.15189507742468
20
397.33946180322278
10
139.45022772592554
20
394.93456023507179
10
131.89990360687969
20
392.08994475262307
10
124.52600413770396
20
388.81506488243826
10
117.35302467087381
20
385.1207994461044
10
110.40479312282304
20
381.0194204218854
10
103.70439081999987
20
376.52455217844079
10
97.274075825015018
20
371.65112621604413
10
91.135208997622811
20
366.41533156564344
10
85.308183036055127
20
360.83456101052479
10
79.812354734564593
20
354.92735330923813
10
74.665980682062312
20
348.71333161170242
10
69.886156615620635
20
342.21313827307944
10
65.488760630082467
20
335.44836628194361
10
61.488400432702328
20
328.4414875305439
10
57.898364817741843
20
321.21577816543891
10
54.730579522483787
20
313.7952412664813
10
51.995567611110467
20
306.20452711099676
10
49.702414518136464
20
298.46885128804297
10
47.858737867528106
20
290.61391093475919
10
46.4706621677093
20
282.66579937306005
0
ENDSEC
0
SECTION
2
OBJECTS
0
DICTIONARY
5
C
100
AcDbDictionary
3
ACAD_GROUP
350
D
3
ACAD_MLINESTYLE
350
17
0
DICTIONARY
5
D
100
AcDbDictionary
0
DICTIONARY
5
1A
330
C
100
AcDbDictionary
0
DICTIONARY
5
17
100
AcDbDictionary
0
ENDSEC
0
EOF
